<?xml version="1.0" standalone="no"?>
<!DOCTYPE svg PUBLIC "-//W3C//DTD SVG 20010904//EN"
        "http://www.w3.org/TR/2001/REC-SVG-20010904/DTD/svg10.dtd">
<svg version="1.0" xmlns="http://www.w3.org/2000/svg"
     width="300.000000pt" height="300.000000pt" viewBox="0 0 300.000000 300.000000"
     preserveAspectRatio="xMidYMid meet">

    <g transform="translate(0.000000,300.000000) scale(0.100000,-0.100000)"
       fill="#000000" stroke="none">
        <path d="M1487 2923 c-2 -5 -17 -46 -32 -93 -15 -47 -92 -260 -172 -475 -79
-214 -152 -412 -162 -438 l-17 -48 -133 305 c-153 354 -181 431 -184 504 -2
61 16 84 82 102 52 14 211 30 303 30 81 0 108 13 108 49 0 42 -1 42 -655 39
l-626 -3 3 -39 3 -39 123 -32 c175 -46 195 -57 242 -129 22 -33 159 -328 305
-656 l265 -597 -46 -119 c-26 -65 -88 -234 -139 -374 -110 -305 -152 -412
-215 -547 -90 -192 -129 -227 -272 -249 -51 -8 -121 -14 -156 -14 -79 0 -102
-11 -102 -50 0 -25 4 -30 36 -36 20 -4 68 -3 107 1 96 11 417 11 713 1 l242
-9 7 23 c13 40 -10 48 -184 65 -248 24 -271 32 -271 99 0 16 33 129 74 250 41
122 114 345 162 496 48 151 91 285 97 298 9 20 14 14 49 -65 106 -237 212
-488 330 -783 72 -179 135 -331 140 -337 13 -17 70 -17 90 0 8 6 49 113 91
237 41 124 120 338 175 475 125 312 124 310 134 292 15 -27 126 -344 202 -574
76 -234 87 -285 64 -316 -14 -19 -94 -31 -281 -42 -115 -7 -137 -17 -137 -60
0 -12 8 -26 18 -30 9 -4 161 -9 337 -11 176 -1 383 -8 460 -13 77 -6 184 -11
238 -11 l98 0 -3 42 c-3 41 -5 43 -53 61 -27 10 -93 30 -145 44 -52 13 -104
31 -116 38 -34 22 -97 158 -170 365 -37 107 -129 367 -205 576 l-137 382 229
563 c127 310 244 588 262 617 40 67 75 86 198 107 152 26 139 20 139 65 l0 40
-427 -1 c-236 -1 -473 -4 -528 -8 -93 -6 -100 -7 -97 -26 2 -11 7 -23 10 -27
4 -4 81 -17 171 -29 182 -25 232 -43 269 -98 26 -40 25 -67 -13 -221 -30 -120
-71 -245 -232 -708 -20 -57 -39 -100 -44 -95 -7 7 -88 223 -309 818 -43 116
-99 258 -125 318 l-47 107 -68 0 c-38 0 -71 -3 -73 -7z m90 -728 c153 -392
281 -737 288 -777 l7 -36 -94 -7 c-51 -3 -174 -5 -272 -3 -146 2 -180 6 -187
18 -5 8 -43 92 -86 185 l-76 170 33 95 c38 113 185 486 230 584 28 63 32 68
43 50 7 -10 59 -136 114 -279z m321 -921 c59 -12 55 -30 -94 -391 -75 -183
-140 -333 -143 -333 -3 0 -72 164 -152 365 l-145 365 252 0 c138 0 265 -3 282
-6z"/>
    </g>
</svg>
